<svg width="69" height="103" viewBox="0 0 69 103" fill="none" xmlns="http://www.w3.org/2000/svg">
<path d="M66.7139 72.8404H33.8218V65.8713H59.4808C57.8441 52.6722 47.1793 42.7993 33.8218 42.7993V35.8302C52.2477 35.8302 66.7139 50.5604 66.7139 69.4087V72.8404Z" fill="#39FF8E"/>
<path d="M33.8744 102.934H0.9823V99.4497C0.9823 80.6014 15.3957 65.8712 33.8744 65.8712H66.7665V69.3558C66.7137 88.2041 52.3003 102.934 33.8744 102.934ZM8.1626 95.9651H33.8216C47.1791 95.9651 57.844 86.0922 59.4806 72.8931H33.8216C20.5169 72.8403 9.79929 82.766 8.1626 95.9651Z" fill="#39FF8E"/>
<path d="M33.8744 72.8932C15.4485 72.8932 0.9823 58.1631 0.9823 39.3148V35.8302H33.8744V42.7993H8.1626C9.79929 55.9984 20.4641 65.8713 33.8216 65.8713V72.8932H33.8744Z" fill="#39FF8E"/>
<path d="M0.983032 42.7987V39.3142C0.983032 19.6211 15.3964 4.15179 33.8751 4.15179C53.5154 4.15179 63.7051 1.98714 63.8107 1.93434L68.0344 0.984009V5.31331C68.0344 25.2703 52.0371 42.7459 33.8223 42.7459L0.983032 42.7987ZM8.16333 35.8296H33.8751C46.863 35.8296 58.795 23.7392 60.8013 9.53701C55.8384 10.2234 46.863 11.1209 33.8751 11.1209C20.4121 11.1209 9.69443 21.733 8.16333 35.8296Z" fill="#39FF8E"/>
</svg>
