<svg xmlns="http://www.w3.org/2000/svg" viewBox="0 0 170.71 43.69">
  <title>Asset 1</title>
  <g id="81fecf3b-f9a7-451b-a4a4-1082285a16bb" data-name="Layer 2">
    <g id="53774b14-c0f0-4f19-9127-dfacf0904758" data-name="Navigation">
      <g>
        <g>
          <g>
            <path d="M59.89,13.31h3l7.4,18.17H66.38l-1.46-3.57H58l-1.42,3.57H52.61Zm1.52,5.95-2.13,5.35h4.32Z" fill="#6d6e70"/>
            <path d="M71.66,13H75.2V31.48H71.66Z" fill="#6d6e70"/>
            <path d="M77.6,13h3.54V31.48H77.6Z" fill="#6d6e70"/>
            <path d="M94.46,26.37H86a2.86,2.86,0,0,0,.75,1.87,2.14,2.14,0,0,0,1.6.72,2.87,2.87,0,0,0,2.56-1.48l3.25,1.07a6,6,0,0,1-5.63,3.17A6,6,0,0,1,84,30a6.28,6.28,0,0,1-1.66-4.58,5.91,5.91,0,0,1,1.75-4.34,5.85,5.85,0,0,1,4.31-1.76,5.63,5.63,0,0,1,4.3,1.85,6.5,6.5,0,0,1,1.72,4.61ZM86,24h4.78q-.5-2.23-2.28-2.22A2.37,2.37,0,0,0,86,24Z" fill="#6d6e70"/>
          </g>
          <g>
            <path d="M94,19.61h3.78l3.42,6.91,3-6.91h3.62l-7.4,17.11H96.77l2.66-6.09Z" fill="#6d6e70"/>
            <path d="M107.36,13.31h3.49l2.93,12.38,3.05-12.38h2.49l3,12.44,3-12.44h3.49l-4.4,18.17h-3.68l-2.67-11.14-2.67,11.14h-3.67Z" fill="#6d6e70"/>
          </g>
          <path d="M136.95,31.48v-2h-.05a6.18,6.18,0,0,1-1.67,1.72,3.85,3.85,0,0,1-2.09.53,4.43,4.43,0,0,1-3.55-1.8,6.68,6.68,0,0,1-1.47-4.37,6.48,6.48,0,0,1,1.56-4.36,4.75,4.75,0,0,1,3.71-1.82,3.72,3.72,0,0,1,1.84.46,7.27,7.27,0,0,1,1.73,1.45V19.61h3.54V31.48Zm-2.6-8.59a2.19,2.19,0,0,0-1.75.84,3.14,3.14,0,0,0-.71,2.11,2.71,2.71,0,0,0,.67,1.92,2.29,2.29,0,0,0,1.77.73,2.33,2.33,0,0,0,1.8-.84,2.93,2.93,0,0,0,.75-2,2.71,2.71,0,0,0-.75-1.91A2.31,2.31,0,0,0,134.34,22.89Z" fill="#6d6e70"/>
          <g>
            <path d="M143.16,15.5h3.54v4.08h1.7v3.25h-1.7v8.65h-3.54V22.83H141.8V19.58h1.36Z" fill="#6d6e70"/>
            <path d="M157.74,27.36V30.9a7.73,7.73,0,0,1-3,.83A6.13,6.13,0,0,1,150.22,30a6,6,0,0,1-1.8-4.42,6.17,6.17,0,0,1,1.67-4.43,5.59,5.59,0,0,1,4.23-1.76,7.7,7.7,0,0,1,3.46.83v3.34a6.7,6.7,0,0,0-2.84-.74,2.64,2.64,0,1,0,0,5.27A8.16,8.16,0,0,0,157.74,27.36Z" fill="#6d6e70"/>
            <path d="M159.4,13H163v8a7.66,7.66,0,0,1,1.8-1.2,4.63,4.63,0,0,1,1.93-.38,3.52,3.52,0,0,1,2.92,1.35,5.92,5.92,0,0,1,1.06,3.74v7h-3.57V25.1a3.13,3.13,0,0,0-.59-1.93,1.76,1.76,0,0,0-1.45-.78,1.7,1.7,0,0,0-1.6.9,5.91,5.91,0,0,0-.51,2.8v5.38h-3.6Z" fill="#6d6e70"/>
          </g>
        </g>
        <g>
          <path d="M17.9,28.55,16.08,17.9,14,28.55ZM32.33,43.69H20.85l-1.8-9.56H12.7l-1.09,6c-.09.46,0,.75.38.86a20.52,20.52,0,0,0,2.5.41v2.25H0V41.44a7.69,7.69,0,0,0,2.82-.38A1.7,1.7,0,0,0,3.46,40L12.06.45H19.7L28.87,39.9a2.14,2.14,0,0,0,.77,1.22,8.46,8.46,0,0,0,2.7.32Z" fill="#231f20"/>
          <polygon points="21.09 42.65 21.26 43.63 21.28 43.63 21.09 42.65" fill="#00adee"/>
          <path d="M38.44,0V2.18q3.27.19,3.15,1.35L39,24.77h-.13L35.56,0H28.5L25.39,23.07,29.31,39.9a.61.61,0,0,0,0,.09L32,19.9h.07l3.14,23.74h7.6L50.38,0Z" fill="#00adee"/>
        </g>
      </g>
    </g>
  </g>
</svg>
