<?xml version="1.0" encoding="UTF-8" standalone="no"?>
<svg width="136px" height="20px" viewBox="0 0 136 20" version="1.1" xmlns="http://www.w3.org/2000/svg" xmlns:xlink="http://www.w3.org/1999/xlink">
    <!-- Generator: Sketch 3.8.3 (29802) - http://www.bohemiancoding.com/sketch -->
    <title>Combined Shape</title>
    <desc>Created with Sketch.</desc>
    <defs></defs>
    <g id="Symbols" stroke="none" stroke-width="1" fill="none" fill-rule="evenodd">
        <g id="&gt;&gt;-top-nav" transform="translate(-84.000000, -21.000000)" fill="#1A1918">
            <g id="Surface_Logo_Black">
                <g transform="translate(84.000000, 21.000000)">
                    <path d="M6.82066667,16.1026667 C8.29466667,16.1026667 9.144,15.4033333 9.144,14.3533333 C9.144,13.2046667 8.02,12.68 6.02133333,11.9553333 C4.772,11.5053333 3.42266667,11.1306667 2.124,10.156 C0.849333333,9.20733333 0.15,7.73333333 0.15,5.934 C0.15,2.56133333 2.67333333,0.138 6.62066667,0.138 C10.8926667,0.138 13.2413333,2.21133333 13.2913333,6.00933333 L8.94466667,6.00933333 C8.91933333,4.58533333 8.09466667,3.76066667 6.72066667,3.76066667 C5.372,3.76066667 4.54733333,4.48533333 4.54733333,5.55933333 C4.54733333,6.90866667 5.87133333,7.18333333 8.26933333,8.08266667 C9.79333333,8.65733333 11.2426667,9.082 12.4173333,10.356 C13.266,11.2806667 13.6913333,12.43 13.6913333,13.854 C13.6913333,17.5013333 10.9926667,20 6.646,20 C2.598,20 0.1,17.7266667 0,14.054 L4.422,14.054 C4.472,15.328 5.372,16.1026667 6.82066667,16.1026667 Z M25.0846667,11.0806667 C25.0846667,14.2286667 25.8593333,15.7526667 28.0326667,15.7526667 C30.2313333,15.7526667 31.0053333,14.2286667 31.0053333,11.0806667 L31.0053333,0.513333333 L35.8026667,0.513333333 L35.8026667,12.7546667 C35.8026667,17.252 32.9293333,19.9753333 28.0326667,19.9753333 C23.1606667,19.9753333 20.2626667,17.252 20.2626667,12.7546667 L20.2626667,0.513333333 L25.0846667,0.513333333 L25.0846667,11.0806667 Z M42.874,0.513333333 L49.8693333,0.513333333 C54.2913333,0.513333333 56.8393333,3.01133333 56.8393333,6.63333333 C56.8393333,9.582 55.2153333,11.5306667 52.6173333,11.7806667 L57.614,19.6 L51.8426667,19.6 L47.6706667,11.4806667 L47.6706667,19.6 L42.874,19.6 L42.874,0.513333333 Z M47.6706667,4.23533333 L47.6706667,9.50666667 L49.0946667,9.50666667 C50.9433333,9.50666667 51.9673333,8.53266667 51.9673333,6.83333333 C51.9673333,5.06 50.9933333,4.23533333 48.9693333,4.23533333 L47.6706667,4.23533333 Z M63.8606667,0.513333333 L74.5533333,0.513333333 L74.5533333,4.21 L68.6573333,4.21 L68.6573333,8.108 L74.5533333,8.108 L74.5533333,11.8053333 L68.6573333,11.8053333 L68.6573333,19.6 L63.8606667,19.6 L63.8606667,0.513333333 Z M85.072,0.513333333 L90.9933333,0.513333333 L97.5393333,19.6 L92.4673333,19.6 L91.6926667,16.8266667 L84.3473333,16.8266667 L83.5726667,19.6 L78.526,19.6 L85.072,0.513333333 Z M90.594,13.2293333 L88.02,4.38533333 L85.4466667,13.2293333 L90.594,13.2293333 Z M111.306,4.41 C108.258,4.41 106.059333,6.708 106.059333,10.0566667 C106.059333,13.404 108.258,15.7033333 111.306,15.7033333 C112.98,15.7033333 114.304,15.0533333 115.253333,13.8286667 L118.401333,17.0266667 C116.527333,18.976 114.079333,19.9753333 111.156,19.9753333 C108.308,19.9753333 105.884,19.0006667 104.036,17.152 C102.186667,15.328 101.212,12.8793333 101.212,10.0566667 C101.212,7.23333333 102.186667,4.76 104.036,2.936 C105.884,1.08733333 108.308,0.138 111.156,0.138 C114.029333,0.138 116.478,1.13733333 118.326,3.01133333 L115.228667,6.15866667 C114.179333,5.01 112.88,4.41 111.306,4.41 Z M124.798,0.513333333 L135.490667,0.513333333 L135.490667,4.21 L129.595333,4.21 L129.595333,8.108 L135.490667,8.108 L135.490667,11.8053333 L129.595333,11.8053333 L129.595333,15.728 L135.490667,15.728 L135.490667,19.6 L124.798,19.6 L124.798,0.513333333 Z" id="Combined-Shape"></path>
                </g>
            </g>
        </g>
    </g>
</svg>